<svg width="219" height="18" viewBox="0 0 219 18" fill="none" xmlns="http://www.w3.org/2000/svg">
<path d="M7.752 14.172C6.77667 14.172 5.871 14.001 5.035 13.659C4.199 13.3044 3.47067 12.8167 2.85 12.196C2.22933 11.5627 1.74167 10.8344 1.387 10.011C1.045 9.17504 0.874 8.26937 0.874 7.29404C0.874 6.3187 1.045 5.41937 1.387 4.59604C1.74167 3.76004 2.22933 3.0317 2.85 2.41104C3.47067 1.79037 4.199 1.30904 5.035 0.967037C5.871 0.61237 6.77667 0.435037 7.752 0.435037C8.72733 0.435037 9.62667 0.61237 10.45 0.967037C11.286 1.30904 12.0143 1.79037 12.635 2.41104C13.2557 3.0317 13.737 3.76004 14.079 4.59604C14.4337 5.41937 14.611 6.3187 14.611 7.29404C14.611 8.26937 14.4337 9.17504 14.079 10.011C13.737 10.8344 13.2557 11.5627 12.635 12.196C12.0143 12.8167 11.286 13.3044 10.45 13.659C9.62667 14.001 8.72733 14.172 7.752 14.172ZM7.752 13.336C8.60067 13.336 9.386 13.184 10.108 12.88C10.8427 12.576 11.476 12.1517 12.008 11.607C12.5527 11.0497 12.977 10.41 13.281 9.68804C13.585 8.95337 13.737 8.15537 13.737 7.29404C13.737 6.4327 13.585 5.64104 13.281 4.91904C12.977 4.18437 12.5527 3.5447 12.008 3.00004C11.476 2.45537 10.8427 2.03104 10.108 1.72704C9.386 1.42304 8.60067 1.27104 7.752 1.27104C6.90333 1.27104 6.11167 1.42304 5.377 1.72704C4.64233 2.03104 4.00267 2.45537 3.458 3.00004C2.926 3.5447 2.508 4.18437 2.204 4.91904C1.9 5.64104 1.748 6.4327 1.748 7.29404C1.748 8.15537 1.9 8.95337 2.204 9.68804C2.508 10.41 2.926 11.0497 3.458 11.607C4.00267 12.1517 4.64233 12.576 5.377 12.88C6.11167 13.184 6.90333 13.336 7.752 13.336ZM7.999 11.398C6.783 11.398 5.82033 11.0244 5.111 10.277C4.40167 9.51704 4.047 8.51004 4.047 7.25604C4.047 6.00204 4.40167 5.01404 5.111 4.29204C5.82033 3.57004 6.783 3.20904 7.999 3.20904C8.50567 3.20904 8.99967 3.2977 9.481 3.47504C9.975 3.65237 10.3867 3.89937 10.716 4.21604L10.26 5.20404C9.918 4.9127 9.557 4.69737 9.177 4.55804C8.797 4.4187 8.42333 4.34904 8.056 4.34904C7.23267 4.34904 6.58667 4.60237 6.118 5.10904C5.64933 5.6157 5.415 6.33137 5.415 7.25604C5.415 8.1807 5.64933 8.91537 6.118 9.46004C6.58667 9.99204 7.23267 10.258 8.056 10.258C8.42333 10.258 8.797 10.1884 9.177 10.049C9.557 9.9097 9.918 9.68804 10.26 9.38404L10.716 10.391C10.3867 10.695 9.975 10.942 9.481 11.132C8.987 11.3094 8.493 11.398 7.999 11.398ZM20.734 14.001L26.643 0.606037H27.973L33.882 14.001H32.267L30.785 10.581H23.812L22.349 14.001H20.734ZM27.289 2.43004L24.382 9.27004H30.234L27.327 2.43004H27.289ZM38.4898 14.172C37.5525 14.172 36.8432 13.8997 36.3618 13.355C35.8932 12.7977 35.6588 11.9934 35.6588 10.942V0.606037H37.1978V10.828C37.1978 12.1834 37.7362 12.861 38.8128 12.861C39.1295 12.861 39.4145 12.823 39.6678 12.747L39.6298 14.039C39.2372 14.1277 38.8572 14.172 38.4898 14.172ZM44.1119 14.172C43.1746 14.172 42.4652 13.8997 41.9839 13.355C41.5152 12.7977 41.2809 11.9934 41.2809 10.942V0.606037H42.8199V10.828C42.8199 12.1834 43.3582 12.861 44.4349 12.861C44.7516 12.861 45.0366 12.823 45.2899 12.747L45.2519 14.039C44.8592 14.1277 44.4792 14.172 44.1119 14.172ZM51.7829 14.001V4.76704H53.2839V6.42004C53.7779 5.30537 54.7912 4.69104 56.3239 4.57704L56.8749 4.52004L56.9889 5.85004L56.0199 5.96404C55.1459 6.04004 54.4809 6.3187 54.0249 6.80004C53.5689 7.2687 53.3409 7.9147 53.3409 8.73804V14.001H51.7829ZM58.4024 2.46804V0.739037H60.3024V2.46804H58.4024ZM58.5924 14.001V4.76704H60.1314V14.001H58.5924ZM67.0935 17.592C66.2955 17.592 65.5418 17.4844 64.8325 17.269C64.1358 17.0664 63.5151 16.756 62.9705 16.338L63.4835 15.217C64.0535 15.6224 64.6171 15.9137 65.1745 16.091C65.7445 16.2684 66.3588 16.357 67.0175 16.357C68.8415 16.357 69.7535 15.4197 69.7535 13.545V11.911C69.4875 12.4937 69.0695 12.956 68.4995 13.298C67.9421 13.6274 67.3025 13.792 66.5805 13.792C65.7318 13.792 64.9971 13.5957 64.3765 13.203C63.7558 12.8104 63.2745 12.272 62.9325 11.588C62.6031 10.8914 62.4385 10.087 62.4385 9.17504C62.4385 8.26304 62.6031 7.46504 62.9325 6.78104C63.2745 6.08437 63.7558 5.54604 64.3765 5.16604C64.9971 4.78604 65.7318 4.59604 66.5805 4.59604C67.3025 4.59604 67.9421 4.7607 68.4995 5.09004C69.0695 5.41937 69.4875 5.86904 69.7535 6.43904V4.76704H71.2545V13.336C71.2545 14.7547 70.8998 15.8187 70.1905 16.528C69.4938 17.2374 68.4615 17.592 67.0935 17.592ZM66.8655 12.538C67.7521 12.538 68.4551 12.234 68.9745 11.626C69.4938 11.018 69.7535 10.201 69.7535 9.17504C69.7535 8.14904 69.4938 7.33837 68.9745 6.74304C68.4551 6.13504 67.7521 5.83104 66.8655 5.83104C65.9915 5.83104 65.2948 6.13504 64.7755 6.74304C64.2561 7.33837 63.9965 8.14904 63.9965 9.17504C63.9965 10.201 64.2561 11.018 64.7755 11.626C65.2948 12.234 65.9915 12.538 66.8655 12.538ZM74.1413 14.001V0.606037H75.6803V6.28704C75.9843 5.7297 76.4086 5.3117 76.9533 5.03304C77.5106 4.7417 78.1313 4.59604 78.8153 4.59604C81.0066 4.59604 82.1023 5.81204 82.1023 8.24404V14.001H80.5633V8.33904C80.5633 7.4777 80.3923 6.8507 80.0503 6.45804C79.7209 6.0527 79.1889 5.85004 78.4543 5.85004C77.6056 5.85004 76.9279 6.11604 76.4213 6.64804C75.9273 7.16737 75.6803 7.86404 75.6803 8.73804V14.001H74.1413ZM88.6451 14.172C87.5558 14.172 86.7388 13.887 86.1941 13.317C85.6494 12.7344 85.3771 11.8984 85.3771 10.809V5.96404H83.5721V4.76704H85.3771V1.93604H86.9161V4.76704H89.8421V5.96404H86.9161V10.657C86.9161 11.379 87.0681 11.93 87.3721 12.31C87.6761 12.6774 88.1701 12.861 88.8541 12.861C89.0568 12.861 89.2594 12.8357 89.4621 12.785C89.6648 12.7344 89.8484 12.6837 90.0131 12.633L90.2791 13.811C90.1144 13.8997 89.8738 13.982 89.5571 14.058C89.2404 14.134 88.9364 14.172 88.6451 14.172ZM96.4626 14.001V4.76704H97.9636V6.42004C98.4576 5.30537 99.4709 4.69104 101.004 4.57704L101.555 4.52004L101.669 5.85004L100.7 5.96404C99.8256 6.04004 99.1606 6.3187 98.7046 6.80004C98.2486 7.2687 98.0206 7.9147 98.0206 8.73804V14.001H96.4626ZM107.322 14.172C105.865 14.172 104.712 13.7477 103.864 12.899C103.015 12.0377 102.591 10.8724 102.591 9.40304C102.591 8.45304 102.781 7.61704 103.161 6.89504C103.541 6.16037 104.06 5.5967 104.719 5.20404C105.39 4.7987 106.163 4.59604 107.037 4.59604C108.291 4.59604 109.272 5.00137 109.982 5.81204C110.691 6.61004 111.046 7.71204 111.046 9.11804V9.70704H104.092C104.142 10.7584 104.446 11.5627 105.004 12.12C105.561 12.6647 106.334 12.937 107.322 12.937C107.879 12.937 108.411 12.8547 108.918 12.69C109.424 12.5127 109.906 12.2277 110.362 11.835L110.894 12.918C110.476 13.3107 109.944 13.621 109.298 13.849C108.652 14.0644 107.993 14.172 107.322 14.172ZM107.075 5.73604C106.201 5.73604 105.51 6.00837 105.004 6.55304C104.497 7.0977 104.199 7.81337 104.111 8.70004H109.716C109.678 7.7627 109.431 7.03437 108.975 6.51504C108.531 5.9957 107.898 5.73604 107.075 5.73604ZM116.389 14.172C115.667 14.172 114.983 14.0707 114.337 13.868C113.691 13.6654 113.159 13.3804 112.741 13.013L113.235 11.93C113.691 12.2974 114.191 12.5697 114.736 12.747C115.293 12.9117 115.857 12.994 116.427 12.994C117.149 12.994 117.694 12.861 118.061 12.595C118.428 12.329 118.612 11.968 118.612 11.512C118.612 11.1574 118.492 10.8787 118.251 10.676C118.01 10.4607 117.63 10.296 117.111 10.182L115.382 9.80204C113.811 9.46004 113.026 8.64937 113.026 7.37004C113.026 6.53404 113.355 5.8627 114.014 5.35604C114.685 4.84937 115.559 4.59604 116.636 4.59604C117.269 4.59604 117.871 4.69737 118.441 4.90004C119.024 5.09004 119.505 5.37504 119.885 5.75504L119.372 6.83804C119.005 6.49604 118.574 6.23637 118.08 6.05904C117.599 5.86904 117.117 5.77404 116.636 5.77404C115.927 5.77404 115.388 5.91337 115.021 6.19204C114.654 6.4707 114.47 6.83804 114.47 7.29404C114.47 8.00337 114.939 8.45937 115.876 8.66204L117.605 9.02304C118.416 9.20037 119.03 9.48537 119.448 9.87804C119.866 10.258 120.075 10.7774 120.075 11.436C120.075 12.2847 119.739 12.956 119.068 13.45C118.397 13.9314 117.504 14.172 116.389 14.172ZM126.582 14.172C125.125 14.172 123.972 13.7477 123.124 12.899C122.275 12.0377 121.851 10.8724 121.851 9.40304C121.851 8.45304 122.041 7.61704 122.421 6.89504C122.801 6.16037 123.32 5.5967 123.979 5.20404C124.65 4.7987 125.423 4.59604 126.297 4.59604C127.551 4.59604 128.532 5.00137 129.242 5.81204C129.951 6.61004 130.306 7.71204 130.306 9.11804V9.70704H123.352C123.402 10.7584 123.706 11.5627 124.264 12.12C124.821 12.6647 125.594 12.937 126.582 12.937C127.139 12.937 127.671 12.8547 128.178 12.69C128.684 12.5127 129.166 12.2277 129.622 11.835L130.154 12.918C129.736 13.3107 129.204 13.621 128.558 13.849C127.912 14.0644 127.253 14.172 126.582 14.172ZM126.335 5.73604C125.461 5.73604 124.77 6.00837 124.264 6.55304C123.757 7.0977 123.459 7.81337 123.371 8.70004H128.976C128.938 7.7627 128.691 7.03437 128.235 6.51504C127.791 5.9957 127.158 5.73604 126.335 5.73604ZM132.533 14.001V4.76704H134.034V6.42004C134.528 5.30537 135.541 4.69104 137.074 4.57704L137.625 4.52004L137.739 5.85004L136.77 5.96404C135.896 6.04004 135.231 6.3187 134.775 6.80004C134.319 7.2687 134.091 7.9147 134.091 8.73804V14.001H132.533ZM142.635 14.001L138.664 4.76704H140.336L143.395 12.253L146.492 4.76704H148.069L144.079 14.001H142.635ZM153.727 14.172C152.27 14.172 151.118 13.7477 150.269 12.899C149.42 12.0377 148.996 10.8724 148.996 9.40304C148.996 8.45304 149.186 7.61704 149.566 6.89504C149.946 6.16037 150.465 5.5967 151.124 5.20404C151.795 4.7987 152.568 4.59604 153.442 4.59604C154.696 4.59604 155.678 5.00137 156.387 5.81204C157.096 6.61004 157.451 7.71204 157.451 9.11804V9.70704H150.497C150.548 10.7584 150.852 11.5627 151.409 12.12C151.966 12.6647 152.739 12.937 153.727 12.937C154.284 12.937 154.816 12.8547 155.323 12.69C155.83 12.5127 156.311 12.2277 156.767 11.835L157.299 12.918C156.881 13.3107 156.349 13.621 155.703 13.849C155.057 14.0644 154.398 14.172 153.727 14.172ZM153.48 5.73604C152.606 5.73604 151.916 6.00837 151.409 6.55304C150.902 7.0977 150.605 7.81337 150.516 8.70004H156.121C156.083 7.7627 155.836 7.03437 155.38 6.51504C154.937 5.9957 154.303 5.73604 153.48 5.73604ZM163.193 14.172C162.37 14.172 161.648 13.9757 161.027 13.583C160.419 13.1904 159.944 12.6394 159.602 11.93C159.273 11.208 159.108 10.3594 159.108 9.38404C159.108 8.39604 159.273 7.54737 159.602 6.83804C159.944 6.11604 160.419 5.56504 161.027 5.18504C161.648 4.79237 162.37 4.59604 163.193 4.59604C163.915 4.59604 164.549 4.75437 165.093 5.07104C165.651 5.3877 166.062 5.8247 166.328 6.38204V0.606037H167.867V14.001H166.366V12.31C166.1 12.8927 165.689 13.3487 165.131 13.678C164.574 14.0074 163.928 14.172 163.193 14.172ZM163.516 12.937C164.378 12.937 165.068 12.633 165.587 12.025C166.107 11.4044 166.366 10.524 166.366 9.38404C166.366 8.23137 166.107 7.35104 165.587 6.74304C165.068 6.13504 164.378 5.83104 163.516 5.83104C162.642 5.83104 161.946 6.13504 161.426 6.74304C160.92 7.35104 160.666 8.23137 160.666 9.38404C160.666 10.524 160.92 11.4044 161.426 12.025C161.946 12.633 162.642 12.937 163.516 12.937ZM175.901 14.001V12.823L180.48 7.88304C181.126 7.1737 181.589 6.5277 181.867 5.94504C182.159 5.36237 182.304 4.76704 182.304 4.15904C182.304 2.60104 181.399 1.82204 179.587 1.82204C178.232 1.82204 177.035 2.3287 175.996 3.34204L175.407 2.12604C175.901 1.61937 176.528 1.21404 177.288 0.910037C178.061 0.59337 178.872 0.435037 179.72 0.435037C181.063 0.435037 182.089 0.751703 182.798 1.38504C183.52 2.0057 183.881 2.89237 183.881 4.04504C183.881 4.84304 183.685 5.62837 183.292 6.40104C182.9 7.16104 182.298 7.9717 181.487 8.83304L177.896 12.671H184.432V14.001H175.901ZM191.284 14.172C189.751 14.172 188.586 13.583 187.788 12.405C186.99 11.227 186.591 9.52337 186.591 7.29404C186.591 5.05204 186.99 3.34837 187.788 2.18304C188.586 1.0177 189.751 0.435037 191.284 0.435037C192.829 0.435037 193.995 1.0177 194.78 2.18304C195.578 3.3357 195.977 5.03304 195.977 7.27504C195.977 9.51704 195.572 11.227 194.761 12.405C193.963 13.583 192.804 14.172 191.284 14.172ZM191.284 12.823C192.348 12.823 193.133 12.3734 193.64 11.474C194.159 10.5747 194.419 9.17504 194.419 7.27504C194.419 5.37504 194.166 3.98804 193.659 3.11404C193.152 2.22737 192.361 1.78404 191.284 1.78404C190.22 1.78404 189.428 2.22737 188.909 3.11404C188.402 4.0007 188.149 5.3877 188.149 7.27504C188.149 9.17504 188.402 10.5747 188.909 11.474C189.428 12.3734 190.22 12.823 191.284 12.823ZM198.687 14.001V12.823L203.266 7.88304C203.912 7.1737 204.374 6.5277 204.653 5.94504C204.944 5.36237 205.09 4.76704 205.09 4.15904C205.09 2.60104 204.184 1.82204 202.373 1.82204C201.017 1.82204 199.82 2.3287 198.782 3.34204L198.193 2.12604C198.687 1.61937 199.314 1.21404 200.074 0.910037C200.846 0.59337 201.657 0.435037 202.506 0.435037C203.848 0.435037 204.874 0.751703 205.584 1.38504C206.306 2.0057 206.667 2.89237 206.667 4.04504C206.667 4.84304 206.47 5.62837 206.078 6.40104C205.685 7.16104 205.083 7.9717 204.273 8.83304L200.682 12.671H207.218V14.001H198.687ZM214.069 14.172C212.536 14.172 211.371 13.583 210.573 12.405C209.775 11.227 209.376 9.52337 209.376 7.29404C209.376 5.05204 209.775 3.34837 210.573 2.18304C211.371 1.0177 212.536 0.435037 214.069 0.435037C215.614 0.435037 216.78 1.0177 217.565 2.18304C218.363 3.3357 218.762 5.03304 218.762 7.27504C218.762 9.51704 218.357 11.227 217.546 12.405C216.748 13.583 215.589 14.172 214.069 14.172ZM214.069 12.823C215.133 12.823 215.918 12.3734 216.425 11.474C216.944 10.5747 217.204 9.17504 217.204 7.27504C217.204 5.37504 216.951 3.98804 216.444 3.11404C215.937 2.22737 215.146 1.78404 214.069 1.78404C213.005 1.78404 212.213 2.22737 211.694 3.11404C211.187 4.0007 210.934 5.3877 210.934 7.27504C210.934 9.17504 211.187 10.5747 211.694 11.474C212.213 12.3734 213.005 12.823 214.069 12.823Z" fill="white"/>
</svg>
